<?xml version="1.0" standalone="no"?>
<!DOCTYPE svg PUBLIC "-//W3C//DTD SVG 20010904//EN"
 "http://www.w3.org/TR/2001/REC-SVG-20010904/DTD/svg10.dtd">
<svg version="1.0" xmlns="http://www.w3.org/2000/svg"
 width="700.000000pt" height="700.000000pt" viewBox="0 0 700.000000 700.000000"
 preserveAspectRatio="xMidYMid meet">
<metadata>
Created by potrace 1.11, written by Peter Selinger 2001-2013
</metadata>
<g transform="translate(0.000000,700.000000) scale(0.100000,-0.100000)"
fill="#000000" stroke="none">
<path d="M1936 5149 c-158 -23 -361 -106 -472 -195 -101 -80 -181 -189 -224
-301 -28 -74 -31 -96 -34 -203 -6 -195 52 -353 173 -477 37 -37 84 -77 104
-88 20 -11 37 -22 37 -26 0 -3 -27 -16 -60 -28 -73 -27 -192 -105 -240 -158
-82 -90 -121 -177 -126 -280 -5 -125 37 -226 129 -309 58 -52 104 -78 196
-109 l64 -21 -54 -34 c-223 -141 -358 -281 -396 -409 -48 -168 44 -382 210
-488 95 -60 242 -123 325 -138 15 -3 38 -7 52 -10 145 -29 265 -39 460 -39
148 0 221 7 339 33 251 55 448 158 612 321 167 166 249 357 244 570 -7 262
-152 473 -399 577 -131 56 -196 62 -647 63 -452 1 -519 4 -601 25 -229 58
-239 243 -18 309 43 13 80 15 184 10 232 -12 425 -7 479 11 7 2 28 6 47 9 97
14 261 81 352 144 182 125 271 312 272 567 0 120 -24 220 -71 290 -7 11 -13
22 -13 26 0 4 58 -22 129 -57 185 -91 232 -98 318 -48 57 33 96 100 99 170 3
70 -12 115 -55 166 -77 90 -177 99 -331 27 -92 -43 -98 -44 -195 -44 -97 0
-103 1 -205 47 -177 78 -277 99 -485 103 -77 1 -167 -2 -199 -6z m271 -181
c32 -11 79 -35 104 -54 69 -50 149 -177 165 -259 2 -11 8 -42 13 -70 10 -52 8
-219 -4 -270 -43 -192 -132 -323 -263 -387 -60 -30 -74 -33 -156 -32 -116 0
-181 27 -265 112 -81 80 -119 160 -146 307 -13 72 -6 198 19 320 14 68 75 181
126 234 59 62 69 69 137 97 73 30 183 31 270 2z m193 -2032 c172 -14 307 -49
368 -97 91 -72 132 -203 111 -358 -29 -210 -243 -403 -485 -436 -27 -4 -60 -9
-74 -11 -53 -8 -240 -5 -301 6 -185 33 -330 104 -446 220 -86 85 -126 175
-126 280 1 182 83 296 259 359 70 25 92 28 239 37 61 3 111 7 112 8 5 4 259
-2 343 -8z"/>
<path d="M4485 5095 c-302 -57 -538 -234 -620 -464 -22 -64 -26 -87 -30 -182
-10 -263 122 -475 363 -583 23 -10 42 -22 42 -26 0 -4 -20 -11 -44 -14 -98
-15 -221 -70 -305 -136 -239 -189 -220 -504 38 -635 48 -24 164 -59 226 -69
17 -2 32 -5 35 -5 3 -1 -17 -15 -45 -33 -244 -154 -347 -236 -427 -338 -107
-138 -86 -338 51 -477 113 -115 299 -194 540 -229 25 -4 55 -8 66 -11 57 -12
437 -9 525 4 526 77 912 435 911 843 0 92 -2 104 -27 189 -53 185 -223 342
-431 396 -86 23 -154 26 -628 29 -291 2 -449 7 -490 15 -131 28 -227 96 -243
174 -21 104 36 183 164 229 64 22 105 24 404 15 220 -7 361 15 520 80 268 110
402 313 401 613 -1 128 -13 170 -92 306 -55 94 -68 124 -53 124 3 0 29 -13 57
-28 29 -16 86 -47 127 -70 135 -74 241 -114 283 -109 148 20 192 221 69 315
-31 24 -44 27 -106 26 -63 0 -82 -5 -161 -43 -82 -40 -97 -44 -178 -46 -98 -3
-162 12 -262 62 -128 63 -261 90 -462 91 -84 0 -178 -5 -218 -13z m303 -76
c169 -55 278 -185 325 -389 9 -38 13 -104 12 -178 -5 -210 -67 -374 -186 -490
-55 -54 -152 -102 -216 -108 -26 -3 -53 -7 -60 -9 -27 -9 -141 16 -198 44 -71
35 -158 121 -203 202 -88 154 -100 416 -30 614 12 33 30 72 40 87 10 14 18 31
18 36 0 6 24 37 54 69 60 65 135 111 211 129 59 14 180 10 233 -7z m102 -2033
c181 -7 216 -11 314 -36 170 -43 251 -115 296 -262 28 -92 13 -264 -32 -352
-57 -113 -182 -231 -299 -284 -116 -52 -290 -77 -464 -68 -185 10 -327 56
-470 151 -166 110 -245 233 -251 392 -7 179 77 323 225 389 108 48 169 60 361
70 69 4 126 8 128 9 2 2 11 1 20 -1 9 -1 87 -5 172 -8z"/>
</g>
</svg>
