<?xml version="1.0" encoding="utf-8"?>
<!-- Generator: Adobe Illustrator 21.0.2, SVG Export Plug-In . SVG Version: 6.00 Build 0)  -->
<svg version="1.1" id="Laag_1" xmlns="http://www.w3.org/2000/svg" xmlns:xlink="http://www.w3.org/1999/xlink" x="0px" y="0px"
	 viewBox="0 0 1000 538" style="enable-background:new 0 0 1000 538;" xml:space="preserve">
<style type="text/css">
	.st0{fill:#35407C;stroke:#35407C;stroke-width:5.0015;stroke-miterlimit:10;}
	.st1{fill:#999998;}
	.st2{fill:#35407C;}
	.st3{font-family:'Apercu-Mono';}
	.st4{font-size:18.0969px;}
</style>
<g id="Laag_1_1_">
	<g>
		<path class="st0" d="M283,254.8c-1.6,1.8-3.6,2.7-6,2.7c-0.9,0-2.3-0.4-4.2-1.2c-1.9-0.8-4-1.7-6.2-2.8c-2.3-1.1-4.6-2.3-6.9-3.6
			s-4.5-2.5-6.3-3.6l-0.9,0.9c2.3,3.6,4.3,7,6,10.1c1.6,3.1,2.5,7.2,2.5,12.2c0,12.4-4.3,21.6-12.9,27.8c-8.6,6.2-20.5,9.3-35.7,9.3
			c-2.2,0-4.4-0.2-6.7-0.5s-5-0.5-8.1-0.5c-5,0.3-9,1.5-12,3.5s-4.5,4.6-4.5,7.7c0,2.5,0.8,4.6,2.3,6.2c1.6,1.6,3.5,2.9,5.9,3.9
			c2.3,0.9,4.9,1.6,7.7,1.9s5.6,0.5,8.2,0.5h37.5c5.5,0,10.4,0.9,14.8,2.6c4.4,1.7,8.1,4.1,11.3,7c3.1,3,5.5,6.4,7.2,10.2
			c1.6,3.8,2.5,8.1,2.5,12.8c0,6.1-1.5,11.9-4.6,17.5s-7.3,10.4-12.8,14.7c-5.5,4.2-11.9,7.5-19.4,10c-7.4,2.4-15.6,3.6-24.5,3.6
			c-17.1,0-30.3-2.5-39.8-7.6s-14.2-12.1-14.2-21c0-3.3,0.9-6.3,2.7-8.9c1.8-2.7,4.1-5.2,6.8-7.6s5.8-4.7,9.2-6.8
			c3.4-2.1,6.7-4.2,10-6.2V349c-8-0.9-14.1-3.2-18.4-6.8c-4.3-3.6-6.5-8.4-6.5-14.3c0-3,0.7-5.8,2.1-8.4c1.4-2.7,3.4-5.1,5.9-7.3
			c2.5-2.2,5.4-4,8.8-5.5c3.4-1.5,7-2.5,10.9-2.9V303c-6.9-2.7-12.2-6.6-16.1-11.7c-3.8-5.2-5.7-11.7-5.7-19.7c0-5,1.1-9.7,3.4-14.1
			c2.3-4.4,5.4-8.2,9.5-11.4s8.9-5.8,14.4-7.6c5.6-1.9,11.6-2.8,18.2-2.8c5.9,0,11.2,0.5,15.8,1.6s9.4,3,14.4,5.6
			c1.9,0.6,3.5,1,4.8,1.2s2.9,0.2,4.8,0.2s3.6-0.3,5-0.8c1.5-0.5,2.9-1.2,4.1-1.9c1.3-0.7,2.6-1.3,4-1.9c1.4-0.5,3.1-0.8,4.9-0.8
			c2.7,0,4.8,0.9,6.6,2.8c1.7,1.9,2.6,4.1,2.6,6.8C285.5,250.9,284.7,253,283,254.8z M259.9,359.8c-1.9-3.3-4.1-5.6-6.8-6.8
			c-3.4-1.7-7.7-2.9-12.9-3.6s-12.3-1.1-21.4-1.1c-3.3,0-6.7,0.2-10.1,0.5c-3.4,0.3-6.3,0.6-8.4,0.9c-7.4,1.9-12.4,4.8-15.3,8.9
			c-2.8,4.1-4.2,8.5-4.2,13.4c0,5,1.4,9.4,4.1,13.1c2.7,3.8,6.1,6.9,10.2,9.5c4.1,2.6,8.4,4.5,13,5.7c4.6,1.3,8.9,1.9,12.8,1.9
			c4.7,0,8.7-0.2,12.1-0.7c3.4-0.5,6.4-1.2,9-2.1c5.5-2.2,10.3-5.7,14.4-10.6s6.2-10.6,6.2-17.4C262.7,367,261.8,363.1,259.9,359.8z
			 M240.4,257.9c-1.1-3.6-2.7-6.8-4.8-9.5s-4.8-4.9-8-6.6c-3.2-1.6-6.9-2.5-11.1-2.5c-3.9,0-7.4,0.9-10.6,2.7
			c-3.1,1.8-5.7,4.2-7.9,7.3c-2.1,3.1-3.7,6.5-4.8,10.4s-1.6,7.9-1.6,12c0,9.4,2.4,16.9,7.2,22.6s10.6,8.6,17.5,8.6
			c4.2,0,7.9-0.9,11.1-2.8c3.2-1.9,5.9-4.4,8.1-7.5c2.2-3.1,3.8-6.7,4.9-10.7c1.1-4,1.6-8.2,1.6-12.6
			C242.1,265.4,241.5,261.5,240.4,257.9z"/>
		<path class="st0" d="M394.2,314.1c-3,7.1-7,13.3-12,18.7c-5,5.3-10.8,9.5-17.5,12.4c-6.7,3-13.7,4.5-21,4.5
			c-6.1,0-12.4-1.1-19-3.3c-6.6-2.2-12.6-5.7-18.2-10.4c-5.6-4.8-10.1-10.9-13.6-18.3s-5.3-16.2-5.3-26.2c0-7.2,1.4-14.2,4.1-20.9
			c2.7-6.7,6.6-12.7,11.5-17.8c4.9-5.2,10.9-9.3,17.8-12.4c7-3.1,14.7-4.7,23.1-4.7c6.3,0,12.6,1.2,19,3.5s12.2,5.8,17.5,10.4
			c5.2,4.6,9.5,10.4,12.9,17.4s5,15.1,5,24.5C398.6,299.5,397.1,307,394.2,314.1z M375,274.1c-1.2-6.1-3.1-11.7-5.8-16.9
			c-2.7-5.2-6.2-9.4-10.6-12.8c-4.4-3.4-9.8-5-16.2-5c-5.2,0-9.8,1.6-13.8,4.7c-4.1,3.1-7.5,7.2-10.4,12.3
			c-2.9,5.1-5.1,10.8-6.6,17.1c-1.5,6.3-2.2,12.8-2.2,19.4c0,7.2,0.6,14,1.9,20.4s3.3,12.1,6.1,17c2.8,4.9,6.4,8.8,10.8,11.7
			c4.4,2.9,9.6,4.3,15.7,4.3s11.2-1.8,15.4-5.5c4.1-3.7,7.5-8.3,10.1-13.8c2.6-5.6,4.5-11.5,5.6-18c1.2-6.4,1.8-12.4,1.8-17.8
			C376.8,285.9,376.2,280.2,375,274.1z"/>
		<path class="st0" d="M477.9,252.3h-35.7V314c0,8,1.7,13.8,5.2,17.4c3.4,3.6,7.9,5.4,13.4,5.4c4.5,0,8.3-0.7,11.3-2.2
			s5.6-3.8,7.7-6.9l1.4,0.7c-0.9,2.3-2.2,4.8-3.9,7.4c-1.6,2.6-3.8,4.9-6.6,7c-2.7,2.1-5.9,3.8-9.6,4.9c-3.7,1.2-8,1.8-13,1.8
			c-3.3,0-6.4-0.5-9.5-1.5c-3-1-5.7-2.5-8-4.5s-4.2-4.1-5.7-6.6c-1.5-2.4-2.2-4.9-2.2-7.4c0-14.7,0.1-28.7,0.2-41.9
			c0.2-13.2,0.2-25,0.2-35.3H406v-2.6l33.8-32.2h1.9V238h43.4L477.9,252.3z"/>
		<path class="st0" d="M590.1,314.1c-3,7.1-7,13.3-12,18.7c-5,5.3-10.8,9.5-17.5,12.4c-6.7,3-13.7,4.5-21,4.5
			c-6.1,0-12.4-1.1-19-3.3c-6.6-2.2-12.6-5.7-18.2-10.4c-5.6-4.8-10.1-10.9-13.6-18.3s-5.3-16.2-5.3-26.2c0-7.2,1.4-14.2,4.1-20.9
			c2.7-6.7,6.6-12.7,11.5-17.8c4.9-5.2,10.9-9.3,17.8-12.4c7-3.1,14.7-4.7,23.1-4.7c6.3,0,12.6,1.2,19,3.5s12.2,5.8,17.5,10.4
			c5.2,4.6,9.5,10.4,12.9,17.4s5,15.1,5,24.5C594.6,299.5,593.1,307,590.1,314.1z M571,274.1c-1.2-6.1-3.1-11.7-5.7-16.9
			c-2.7-5.2-6.2-9.4-10.6-12.8c-4.4-3.4-9.8-5-16.2-5c-5.2,0-9.8,1.6-13.8,4.7c-4.1,3.1-7.6,7.2-10.4,12.3
			c-2.9,5.1-5.1,10.8-6.6,17.1c-1.5,6.3-2.2,12.8-2.2,19.4c0,7.2,0.6,14,1.9,20.4s3.3,12.1,6.1,17s6.4,8.8,10.8,11.7
			c4.4,2.9,9.6,4.3,15.7,4.3c6.1,0,11.2-1.8,15.4-5.5c4.1-3.7,7.5-8.3,10.1-13.8c2.6-5.6,4.5-11.5,5.6-18c1.2-6.4,1.8-12.4,1.8-17.8
			C572.7,285.9,572.1,280.2,571,274.1z"/>
		<path class="st1" d="M722.1,254.8c-1.6,1.8-3.6,2.7-6,2.7c-0.9,0-2.3-0.4-4.2-1.2c-1.9-0.8-4-1.7-6.2-2.8
			c-2.3-1.1-4.6-2.3-6.9-3.6c-2.3-1.3-4.5-2.5-6.3-3.6l-0.9,0.9c2.3,3.6,4.3,7,6,10.1c1.6,3.1,2.5,7.2,2.5,12.2
			c0,12.4-4.3,21.6-12.9,27.8c-8.6,6.2-20.5,9.3-35.7,9.3c-2.2,0-4.4-0.2-6.7-0.5s-5-0.5-8.1-0.5c-5,0.3-9,1.5-12,3.5
			s-4.5,4.6-4.5,7.7c0,2.5,0.8,4.6,2.3,6.2c1.6,1.6,3.5,2.9,5.9,3.9c2.3,0.9,4.9,1.6,7.7,1.9s5.6,0.5,8.2,0.5h37.5
			c5.5,0,10.4,0.9,14.8,2.6c4.4,1.7,8.1,4.1,11.3,7c3.1,3,5.5,6.4,7.2,10.2s2.5,8.1,2.5,12.8c0,6.1-1.5,11.9-4.6,17.5
			s-7.3,10.4-12.8,14.7c-5.5,4.2-11.9,7.5-19.4,10c-7.4,2.4-15.6,3.6-24.5,3.6c-17.1,0-30.3-2.5-39.8-7.6s-14.2-12.1-14.2-21
			c0-3.3,0.9-6.3,2.7-8.9c1.8-2.7,4.1-5.2,6.8-7.6s5.8-4.7,9.2-6.8c3.4-2.1,6.7-4.2,10-6.2V349c-8-0.9-14.1-3.2-18.4-6.8
			c-4.3-3.6-6.5-8.4-6.5-14.3c0-3,0.7-5.8,2.1-8.4c1.4-2.7,3.4-5.1,5.9-7.3c2.5-2.2,5.4-4,8.8-5.5c3.4-1.5,7-2.5,10.9-2.9V303
			c-6.9-2.7-12.2-6.6-16.1-11.7c-3.8-5.2-5.7-11.7-5.7-19.7c0-5,1.1-9.7,3.4-14.1c2.3-4.4,5.4-8.2,9.5-11.4s8.9-5.8,14.4-7.6
			c5.6-1.9,11.6-2.8,18.2-2.8c5.9,0,11.2,0.5,15.8,1.6s9.4,3,14.4,5.6c1.9,0.6,3.5,1,4.8,1.2s2.9,0.2,4.8,0.2s3.6-0.3,5-0.8
			c1.5-0.5,2.9-1.2,4.1-1.9c1.3-0.7,2.6-1.3,4-1.9c1.4-0.5,3.1-0.8,4.9-0.8c2.7,0,4.8,0.9,6.6,2.8c1.7,1.9,2.6,4.1,2.6,6.8
			C724.6,250.9,723.7,253,722.1,254.8z M699,359.8c-1.9-3.3-4.1-5.6-6.8-6.8c-3.4-1.7-7.7-2.9-12.9-3.6s-12.3-1.1-21.4-1.1
			c-3.3,0-6.7,0.2-10.1,0.5c-3.4,0.3-6.3,0.6-8.4,0.9c-7.4,1.9-12.4,4.8-15.3,8.9c-2.8,4.1-4.2,8.5-4.2,13.4c0,5,1.4,9.4,4.1,13.1
			c2.7,3.8,6.1,6.9,10.2,9.5c4.1,2.6,8.4,4.5,13,5.7c4.6,1.3,8.9,1.9,12.8,1.9c4.7,0,8.7-0.2,12.1-0.7c3.4-0.5,6.4-1.2,9-2.1
			c5.5-2.2,10.3-5.7,14.4-10.6c4.1-4.9,6.2-10.6,6.2-17.4C701.8,367,700.9,363.1,699,359.8z M679.5,257.9c-1.1-3.6-2.7-6.8-4.8-9.5
			s-4.8-4.9-8-6.6c-3.2-1.6-6.9-2.5-11.1-2.5c-3.9,0-7.4,0.9-10.6,2.7c-3.1,1.8-5.7,4.2-7.9,7.3c-2.1,3.1-3.7,6.5-4.8,10.4
			s-1.6,7.9-1.6,12c0,9.4,2.4,16.9,7.2,22.6s10.6,8.6,17.5,8.6c4.2,0,7.9-0.9,11.1-2.8c3.2-1.9,5.9-4.4,8.1-7.5
			c2.2-3.1,3.8-6.7,4.9-10.7c1.1-4,1.6-8.2,1.6-12.6C681.1,265.4,680.6,261.5,679.5,257.9z"/>
		<path class="st1" d="M833.2,314.1c-3,7.1-7,13.3-12,18.7c-5,5.3-10.8,9.5-17.5,12.4c-6.7,3-13.7,4.5-21,4.5
			c-6.1,0-12.4-1.1-19-3.3c-6.6-2.2-12.6-5.7-18.2-10.4c-5.6-4.8-10.1-10.9-13.6-18.3s-5.3-16.2-5.3-26.2c0-7.2,1.4-14.2,4.1-20.9
			c2.7-6.7,6.6-12.7,11.5-17.8c4.9-5.2,10.9-9.3,17.8-12.4c7-3.1,14.7-4.7,23.1-4.7c6.3,0,12.6,1.2,19,3.5s12.2,5.8,17.5,10.4
			c5.2,4.6,9.5,10.4,12.9,17.4s5,15.1,5,24.5C837.7,299.5,836.2,307,833.2,314.1z M814.1,274.1c-1.2-6.1-3.1-11.7-5.7-16.9
			c-2.7-5.2-6.2-9.4-10.6-12.8c-4.4-3.4-9.8-5-16.2-5c-5.2,0-9.8,1.6-13.8,4.7c-4.1,3.1-7.6,7.2-10.4,12.3
			c-2.9,5.1-5.1,10.8-6.6,17.1c-1.5,6.3-2.2,12.8-2.2,19.4c0,7.2,0.6,14,1.9,20.4c1.3,6.4,3.3,12.1,6.1,17s6.4,8.8,10.8,11.7
			c4.4,2.9,9.6,4.3,15.7,4.3c6.1,0,11.2-1.8,15.4-5.5c4.1-3.7,7.5-8.3,10.1-13.8c2.6-5.6,4.5-11.5,5.6-18c1.2-6.4,1.8-12.4,1.8-17.8
			C815.9,285.9,815.3,280.2,814.1,274.1z"/>
	</g>
</g>
<g id="Text">
	<text transform="matrix(1 0 0 1 454.7559 203.6465)" class="st2 st3 st4">if you can’t stay, take me away</text>
</g>
</svg>
